# xmcd
#
# Track frame offsets: 
#        167
#        16039
#        35425
#        48588
#        60529
#        72943
#        86281
#        103515
#        117751
#        139416
#        151979
#        174318
#        189825
#        211993
#        234223
#        256892
#        275273
#        292370
#        314530
#        333108
#
# Disc length: 4692 seconds
#
# Revision: 4
# Processed by: cddbd v1.5.2PL0 Copyright (c) Steve Scherf et al.
# Submitted via: ExactAudioCopyFreeDBPlugin 1.0
#
DISCID=10125214
DTITLE=Various Artist - Blues Guitar Heroes
DYEAR=2003
DGENRE=Blues
TTITLE0=Hound Dog Taylor - Ain't got nobody
TTITLE1=John Lee Hooker - Boom boom
TTITLE2=Muddy Waters - Mannish boy
TTITLE3=BB King - Everyday I've got the Blues
TTITLE4=Albert King - Born under a bad sign
TTITLE5=Taj Mahal - Statesboro Blues
TTITLE6=ZZ Top - La grange
TTITLE7=Canned Heat - On the road again
TTITLE8=Freedie King - Hide away
TTITLE9=Stevie Ray Vaughan - Mary had a little lamb
TTITLE10=Vaughan Brothers - Tick tock
TTITLE11=Johnny Winter - Johnny Guitar
TTITLE12=R. Cray - J. Copeland - T-bone shuffle
TTITLE13=George Thorogood - Bad to the bone
TTITLE14=Chris Duarte - Cleopatra
TTITLE15=Coco Montoya - Tumbleweed
TTITLE16=Gwyn Ashton - Ain't got time for that stuff
TTITLE17=Popa Chubby - Stoop down baby
TTITLE18=Bill Perry - Greycourt lightning
TTITLE19=Steve Johnson - Think it over
EXTD=YEAR: 2003
EXTT0=
EXTT1=
EXTT2=
EXTT3=
EXTT4=
EXTT5=
EXTT6=
EXTT7=
EXTT8=
EXTT9=
EXTT10=
EXTT11=
EXTT12=
EXTT13=
EXTT14=
EXTT15=
EXTT16=
EXTT17=
EXTT18=
EXTT19=
PLAYORDER=
